<?xml version="1.0" encoding="UTF-8" standalone="no"?>
<!DOCTYPE svg PUBLIC "-//W3C//DTD SVG 1.1//EN" "http://www.w3.org/Graphics/SVG/1.1/DTD/svg11.dtd">
<svg width="100%" height="100%" viewBox="0 0 1920 1080" version="1.1" xmlns="http://www.w3.org/2000/svg" xmlns:xlink="http://www.w3.org/1999/xlink" xml:space="preserve" xmlns:serif="http://www.serif.com/" style="fill-rule:evenodd;clip-rule:evenodd;stroke-linecap:round;stroke-linejoin:round;stroke-miterlimit:1.5;">
    <g transform="matrix(1,0,0,1,0,-58.4847)">
        <path d="M0,96C300.182,109.922 728.577,2.527 523,343C317.423,683.473 -173.521,913.341 458,838C1089.52,762.659 1046.4,58.066 783,387C519.598,715.934 715.918,949.171 1178,905C1640.08,860.829 1739.58,881.478 1455,598.485C1170.42,315.491 1227.85,288.43 1611,302C1994.15,315.57 1598.23,245.535 1666,145C1733.77,44.465 1920,208 1920,208" style="fill:none;stroke:rgb(62,0,158);stroke-width:4.17px;"/>
    </g>
    <g transform="matrix(1,0,0,1,0,-33.4847)">
        <path d="M0,96C300.182,109.922 728.577,2.527 523,343C317.423,683.473 -173.521,913.341 458,838C1089.52,762.659 1046.4,58.066 783,387C519.598,715.934 715.918,949.171 1178,905C1640.08,860.829 1739.58,881.478 1455,598.485C1170.42,315.491 1227.85,288.43 1611,302C1994.15,315.57 1598.23,245.535 1666,145C1733.77,44.465 1920,208 1920,208" style="fill:none;stroke:rgb(62,0,158);stroke-width:4.17px;"/>
    </g>
    <g transform="matrix(1,0,0,1,0,-8.48465)">
        <path d="M0,96C300.182,109.922 728.577,2.527 523,343C317.423,683.473 -173.521,913.341 458,838C1089.52,762.659 1046.4,58.066 783,387C519.598,715.934 715.918,949.171 1178,905C1640.08,860.829 1739.58,881.478 1455,598.485C1170.42,315.491 1227.85,288.43 1611,302C1994.15,315.57 1598.23,245.535 1666,145C1733.77,44.465 1920,208 1920,208" style="fill:none;stroke:rgb(62,0,158);stroke-width:4.17px;"/>
    </g>
    <g transform="matrix(1,0,0,1,0,16.5153)">
        <path d="M0,96C300.182,109.922 728.577,2.527 523,343C317.423,683.473 -173.521,913.341 458,838C1089.52,762.659 1046.4,58.066 783,387C519.598,715.934 715.918,949.171 1178,905C1640.08,860.829 1739.58,881.478 1455,598.485C1170.42,315.491 1227.85,288.43 1611,302C1994.15,315.57 1598.23,245.535 1666,145C1733.77,44.465 1920,208 1920,208" style="fill:none;stroke:rgb(62,0,158);stroke-width:4.17px;"/>
    </g>
    <g transform="matrix(1,0,0,1,0,41.5153)">
        <path d="M0,96C300.182,109.922 728.577,2.527 523,343C317.423,683.473 -173.521,913.341 458,838C1089.52,762.659 1046.4,58.066 783,387C519.598,715.934 715.918,949.171 1178,905C1640.08,860.829 1739.58,881.478 1455,598.485C1170.42,315.491 1227.85,288.43 1611,302C1994.15,315.57 1598.23,245.535 1666,145C1733.77,44.465 1920,208 1920,208" style="fill:none;stroke:rgb(62,0,158);stroke-width:4.17px;"/>
    </g>
    <g transform="matrix(1,0,0,1,0,66.5153)">
        <path d="M0,96C300.182,109.922 728.577,2.527 523,343C317.423,683.473 -173.521,913.341 458,838C1089.52,762.659 1046.4,58.066 783,387C519.598,715.934 715.918,949.171 1178,905C1640.08,860.829 1739.58,881.478 1455,598.485C1170.42,315.491 1227.85,288.43 1611,302C1994.15,315.57 1598.23,245.535 1666,145C1733.77,44.465 1920,208 1920,208" style="fill:none;stroke:rgb(62,0,158);stroke-width:4.17px;"/>
    </g>
    <g transform="matrix(1,0,0,1,0,91.5153)">
        <path d="M0,96C300.182,109.922 728.577,2.527 523,343C317.423,683.473 -173.521,913.341 458,838C1089.52,762.659 1046.4,58.066 783,387C519.598,715.934 715.918,949.171 1178,905C1640.08,860.829 1739.58,881.478 1455,598.485C1170.42,315.491 1227.85,288.43 1611,302C1994.15,315.57 1598.23,245.535 1666,145C1733.77,44.465 1920,208 1920,208" style="fill:none;stroke:rgb(62,0,158);stroke-width:4.17px;"/>
    </g>
</svg>
