<?xml version="1.0" encoding="UTF-8"?>
<!DOCTYPE svg  PUBLIC '-//W3C//DTD SVG 1.1//EN'  'http://www.w3.org/Graphics/SVG/1.1/DTD/svg11.dtd'>
<svg clip-rule="evenodd" fill-rule="evenodd" stroke-linejoin="round" stroke-miterlimit="2" version="1.1" viewBox="0 0 96 163" xml:space="preserve" xmlns="http://www.w3.org/2000/svg"><path d="m-42.104 162.24c7.974 0 15.263-4.505 18.83-11.637 3.566-7.132 2.796-15.667-1.988-22.046-22.364-29.819-55.322-73.763-80.844-107.79-5.437-7.249-14.903-10.206-23.499-7.341-8.597 2.866-14.395 10.91-14.395 19.972v107.79c-0 5.583 2.218 10.938 6.166 14.886s9.303 6.166 14.886 6.166h80.844z"/><path d="m61.937 162.24c7.296 0 14.072-3.778 17.908-9.984 3.836-6.207 4.185-13.957 0.922-20.483-11.024-22.047-26.459-52.916-40.886-81.77-4.366-8.733-14.164-13.317-23.666-11.074s-16.215 10.725-16.215 20.489v81.77c-0 5.583 2.218 10.938 6.166 14.886s9.303 6.166 14.886 6.166h40.885z"/><circle cx="117.13" cy="141.12" r="21.12"/></svg>